# xmcd
#
# Track frame offsets: 
#        183
#        11903
#        28600
#        41965
#        59658
#        73055
#        84400
#        99023
#        120938
#        132440
#        138815
#        147478
#        160880
#        178130
#
# Disc length: 2665 seconds
#
# Revision: 1
# Processed by: cddbd v1.5.1PL0 Copyright (c) Steve Scherf et al.
# Submitted via: ExactAudioCopy v0.95a5
#
DISCID=c50a670e
DTITLE=James Last - The Rose Of Tralee
DYEAR=1983
DGENRE=Easy Listening
TTITLE0=Maggie
TTITLE1=Irish Stew
TTITLE2=Coulin
TTITLE3=Come Back To Erin
TTITLE4=Ril Mhor Bhaile An Chalaidh
TTITLE5=An Eriskay Love Lilt
TTITLE6=On The Banks Of My Own Lovely Lee
TTITLE7=Summer In Dublin
TTITLE8=When Irish Eyes Are Smiling
TTITLE9=The Rose Of Tralee
TTITLE10=The Londonderry Air
TTITLE11=Sweep Stake
TTITLE12=Cockles And Mussels
TTITLE13=(I Love) Ireland
EXTD=
EXTT0=
EXTT1=
EXTT2=
EXTT3=
EXTT4=
EXTT5=
EXTT6=
EXTT7=
EXTT8=
EXTT9=
EXTT10=
EXTT11=
EXTT12=
EXTT13=
PLAYORDER=
